HIERARCHY
ROOT Hips
{
	OFFSET 0.000000 0.000000 0.000000
	CHANNELS 6 Xposition Yposition Zposition Xrotation Yrotation Zrotation
	JOINT LeftUpLeg
	{
		OFFSET 9.269806 0.000000 0.000000
		CHANNELS 3 Xrotation Yrotation Zrotation
		JOINT LeftLeg
		{
			OFFSET 0.000000 -39.892732 0.000000
			CHANNELS 3 Xrotation Yrotation Zrotation
			JOINT LeftFoot
			{
				OFFSET 0.000000 -39.163422 0.000000
				CHANNELS 3 Xrotation Yrotation Zrotation
				JOINT LeftToeBase
				{
					OFFSET 0.000000 -3.899992 14.555038
					CHANNELS 3 Xrotation Yrotation Zrotation
					End Site
					{
						OFFSET 0.000000 0.000000 7.499985
					}
				}
			}
		}
	}
	JOINT RightUpLeg
	{
		OFFSET -9.269806 0.000000 0.000000
		CHANNELS 3 Xrotation Yrotation Zrotation
		JOINT RightLeg
		{
			OFFSET 0.000000 -39.892732 0.000000
			CHANNELS 3 Xrotation Yrotation Zrotation
			JOINT RightFoot
			{
				OFFSET 0.000000 -39.163422 0.000000
				CHANNELS 3 Xrotation Yrotation Zrotation
				JOINT RightToeBase
				{
					OFFSET 0.000000 -3.899992 14.555038
					CHANNELS 3 Xrotation Yrotation Zrotation
					End Site
					{
						OFFSET 0.000000 0.000000 7.499985
					}
				}
			}
		}
	}
	JOINT Spine
	{
		OFFSET 0.000000 0.100000 0.000000
		CHANNELS 3 Xrotation Yrotation Zrotation
		JOINT Spine1
		{
			OFFSET 0.000000 26.030657 0.000000
			CHANNELS 3 Xrotation Yrotation Zrotation
			JOINT Neck
			{
				OFFSET 0.000000 19.880250 0.000000
				CHANNELS 3 Xrotation Yrotation Zrotation
				JOINT Head
				{
					OFFSET 0.000000 17.544161 0.000000
					CHANNELS 3 Xrotation Yrotation Zrotation
					End Site
					{
						OFFSET 0.000000 11.499977 0.000000
					}
				}
			}
			JOINT LeftShoulder
			{
				OFFSET 0.000000 19.880250 0.000000
				CHANNELS 3 Xrotation Yrotation Zrotation
				JOINT LeftArm
				{
					OFFSET 17.043857 -0.000051 0.000000
					CHANNELS 3 Xrotation Yrotation Zrotation
					JOINT LeftForeArm
					{
						OFFSET 27.798243 -0.000102 0.000000
						CHANNELS 3 Xrotation Yrotation Zrotation
						JOINT LeftHand
						{
							OFFSET 21.641054 -0.000076 0.000000
							CHANNELS 3 Xrotation Yrotation Zrotation
							End Site
							{
								OFFSET 9.999980 -0.000025 0.000000
							}
						}
					}
				}
			}
			JOINT RightShoulder
			{
				OFFSET 0.000000 19.880250 0.000000
				CHANNELS 3 Xrotation Yrotation Zrotation
				JOINT RightArm
				{
					OFFSET -17.043857 -0.000051 0.000000
					CHANNELS 3 Xrotation Yrotation Zrotation
					JOINT RightForeArm
					{
						OFFSET -27.798243 -0.000102 0.000000
						CHANNELS 3 Xrotation Yrotation Zrotation
						JOINT RightHand
						{
							OFFSET -21.641054 -0.000076 0.000000
							CHANNELS 3 Xrotation Yrotation Zrotation
							End Site
							{
								OFFSET -13.699973 -0.000051 0.000000
							}
						}
					}
				}
			}
		}
	}
}
MOTION
Frames: 15
Frame Time: 0.033333
0.000000 84.456146 0.000000 0.000000 0.000000 0.000000 0.000000 0.000000 0.000000 0.000000 0.000000 0.000000 0.000000 0.000000 0.000000 0.000000 0.000000 0.000000 0.000000 0.000000 0.000000 0.000000 0.000000 0.000000 0.000000 0.000000 0.000000 0.000000 0.000000 0.000000 0.000000 0.000000 0.000000 0.000000 0.000000 0.000000 0.000000 0.000000 0.000000 0.000000 0.000000 0.000000 0.000000 0.000000 0.000000 0.000000 0.000000 0.000000 0.000000 0.000000 0.000000 0.000000 0.000000 0.000000 0.000000 0.000000 0.000000 0.000000 0.000000 0.000000 0.000000 0.000000 0.000000 0.000000 0.000000 0.000000 
-11.012932 83.158076 20.843748 -1.693500 -6.761700 -3.490600 -10.742500 -5.708200 5.717400 28.394700 0.000000 0.000000 -18.852400 -7.854300 3.959600 -12.825800 0.000000 0.000000 -1.392500 -3.253900 5.175300 12.050100 0.000000 0.000000 -20.062900 3.481900 -20.565400 -16.969800 0.000000 0.000000 -4.992400 2.589100 0.435000 14.230400 1.469000 1.399000 7.004800 2.057900 -2.736200 11.783500 -4.059900 5.611900 18.719500 10.655000 -1.360900 -43.193500 -7.346300 -73.700400 -0.000800 -75.252600 -0.000600 -78.786900 -5.049800 -26.735400 13.494600 -14.761400 3.347900 -40.906200 10.998900 64.568200 -0.000600 71.680700 0.000500 -54.658200 6.152500 6.325900 
-11.260074 83.228180 20.903438 -1.991600 -6.966900 -3.078200 -10.921500 -4.764700 5.071200 29.897200 0.000000 0.000000 -19.301700 -7.861900 4.404100 -15.405800 0.000000 0.000000 -1.013500 -2.493800 5.021800 11.726300 0.000000 0.000000 -19.504200 3.105200 -20.873600 -18.049900 0.000000 0.000000 -5.045900 2.623600 0.422200 14.319400 1.371100 0.883300 6.968500 2.081400 -2.881400 11.923300 -3.922300 5.619700 18.766300 10.617800 -1.490900 -43.958200 -7.832100 -73.821100 -0.000700 -73.765500 -0.000500 -78.924100 -5.436900 -25.445000 13.228800 -14.588100 3.094800 -40.776500 11.764000 65.550700 -0.000600 69.910200 0.000400 -55.222600 5.502500 6.805200 
-11.413490 83.315048 21.063458 -2.176300 -7.111600 -2.750700 -10.699900 -4.138800 4.325800 30.825500 0.000000 0.000000 -19.842600 -7.774100 4.591000 -15.243100 0.000000 0.000000 -0.459100 -2.894700 4.757300 11.234500 0.000000 0.000000 -19.167600 3.801900 -21.218300 -17.990000 0.000000 0.000000 -5.234700 2.669700 0.464400 14.245500 1.325300 0.523500 7.007000 2.139000 -3.025100 11.922100 -3.815800 5.377200 18.771200 10.492800 -1.477900 -43.954600 -7.926100 -74.518600 -0.000600 -71.702100 -0.000500 -76.939400 -5.868500 -23.794300 13.220400 -14.388300 2.970900 -40.403500 12.319700 66.532600 -0.000500 67.173500 0.000300 -55.983100 5.320000 7.925600 
-11.530584 83.362800 21.262594 -2.223300 -7.315100 -2.563200 -10.028800 -3.536800 3.788400 30.651300 0.000000 0.000000 -19.881900 -7.891100 3.638800 -12.074500 0.000000 0.000000 -0.111400 -3.039500 4.618400 10.937500 0.000000 0.000000 -19.429300 4.484700 -21.677300 -12.490300 0.000000 0.000000 -5.447900 2.706000 0.443800 14.002900 1.380500 0.521100 6.737700 2.228200 -3.216000 11.943500 -3.672800 5.053300 18.543600 10.620100 -1.492700 -43.258100 -8.082500 -75.729900 -0.000500 -68.709200 -0.000400 -74.059300 -5.968700 -21.102800 12.884900 -14.440700 2.845100 -39.643200 12.719400 67.713300 -0.000400 63.370300 0.000300 -56.433800 4.733100 8.634600 
-11.682476 83.360006 21.581618 -2.432300 -7.638300 -2.649600 -8.461900 -2.683800 3.729900 28.792000 0.000000 0.000000 -18.104900 -7.932800 2.365400 -14.407200 0.000000 0.000000 0.522300 -2.635400 4.777200 10.463800 0.000000 0.000000 -19.318100 4.497200 -22.003200 -13.627900 0.000000 0.000000 -5.688500 2.721500 0.422500 13.749000 1.492800 0.750900 6.699100 2.204000 -3.251200 11.503100 -3.317700 4.689000 18.565400 10.639900 -1.422100 -42.265100 -8.069600 -77.270700 -0.000400 -64.172900 -0.000300 -73.559200 -6.856200 -19.583200 12.895800 -14.369300 2.852800 -38.960400 12.825400 69.026600 -0.000300 57.996300 0.000200 -58.461800 4.137500 10.291500 
-11.825224 83.314540 21.844000 -2.448800 -7.955700 -2.885500 -6.679900 -1.429200 4.180200 25.398800 0.000000 0.000000 -18.140300 -7.078500 0.826400 -13.262000 0.000000 0.000000 0.770800 -2.125800 5.090900 10.282700 0.000000 0.000000 -19.361200 4.320700 -22.017400 -14.604800 0.000000 0.000000 -5.943900 2.628300 0.393200 13.356800 1.524800 1.136200 6.468700 2.328900 -3.238200 11.151100 -2.966500 4.419200 18.579100 10.756000 -1.279300 -41.048800 -7.135500 -79.001600 -0.000300 -58.091500 -0.000200 -71.849500 -7.982700 -18.546000 12.982300 -14.228300 3.229200 -38.140100 12.885400 70.072800 -0.000300 51.753200 0.000100 -59.506700 3.633000 10.620600 
-11.961368 83.256374 22.179534 -2.564000 -8.062700 -3.232400 -4.498800 0.420800 4.910100 21.689800 0.000000 0.000000 -18.647200 -8.369300 0.207800 -12.794600 0.000000 0.000000 0.998900 -1.398700 5.527200 10.462800 0.000000 0.000000 -19.594100 3.801500 -22.423500 -15.259000 0.000000 0.000000 -6.157700 2.438400 0.298000 13.096000 1.521200 1.742000 6.122900 2.395600 -3.312400 10.860700 -2.646700 4.275500 18.560600 10.588000 -1.367000 -39.405200 -5.602100 -80.093900 -0.000300 -51.324400 -0.000100 -72.113800 -7.927200 -16.159300 12.999100 -14.334300 3.659200 -37.095500 12.059000 71.132700 -0.000200 44.647700 0.000100 -60.913300 2.538300 11.555600 
-11.952478 83.214464 22.465284 -2.503400 -7.824400 -3.184600 -2.800200 1.121900 4.979400 18.489000 0.000000 0.000000 -18.623400 -9.234500 -0.835300 -13.572900 0.000000 0.000000 0.855300 -1.012700 5.516200 11.014900 0.000000 0.000000 -20.122600 3.174900 -22.573500 -15.923400 0.000000 0.000000 -6.296300 2.158900 0.107200 12.778200 1.320600 1.950500 5.700300 2.433000 -3.329800 10.655700 -2.473500 4.249300 18.702800 10.678800 -1.424300 -38.279600 -3.227000 -80.999800 -0.000200 -42.269400 -0.000100 -73.099100 -7.822900 -15.665600 13.383700 -14.696200 4.500700 -36.196500 9.768500 72.151600 -0.000200 37.367500 0.000100 -63.400800 2.011800 12.187500 
-11.848338 83.283552 22.742144 -2.429200 -7.371000 -2.591300 -2.010000 0.802000 4.255700 17.114900 0.000000 0.000000 -18.429900 -9.188300 -1.524300 -9.916700 0.000000 0.000000 0.582000 -0.415100 4.984100 11.805400 0.000000 0.000000 -21.050000 2.361200 -23.443000 -11.385600 0.000000 0.000000 -6.358400 1.918100 -0.320300 12.686300 1.113100 1.810800 5.307800 2.325500 -3.414000 10.234200 -2.269600 4.082400 18.707700 10.651800 -1.416700 -37.292300 0.309800 -80.883400 -0.000100 -32.143500 0.000000 -71.948100 -8.931900 -13.132600 13.624600 -15.340500 5.037700 -34.799500 4.979100 73.125100 -0.000100 30.899100 0.000000 -66.977200 1.795700 12.196900 
-11.748008 83.349592 23.021290 -2.310300 -6.781300 -2.099700 -1.220300 -0.707300 3.400300 15.555400 0.000000 0.000000 -15.710100 -8.218000 4.409100 -16.566900 0.000000 0.000000 0.411000 -0.017000 4.580900 12.352400 0.000000 0.000000 -21.513700 1.572100 -24.663100 -12.992700 0.000000 0.000000 -6.293200 1.710500 -0.446000 12.588100 0.825300 1.333400 4.899400 2.227300 -3.561800 9.632300 -2.061400 4.028900 18.714000 10.978200 -1.250300 -36.657500 6.120100 -79.470800 -0.000100 -22.263800 0.000000 -74.355700 -9.005400 -11.074900 13.940900 -16.337200 5.220200 -33.029200 -2.444400 73.628000 -0.000100 26.030600 0.000000 -72.282500 1.111400 12.021300 
-11.680444 83.355180 23.308818 -2.052800 -6.379000 -1.914100 -0.848200 -0.677400 3.179600 14.475000 0.000000 0.000000 -13.868600 -8.531400 8.362800 -21.625400 0.000000 0.000000 0.335900 -0.207800 4.404100 12.551800 0.000000 0.000000 -21.993600 1.504200 -25.223900 -14.164100 0.000000 0.000000 -6.338900 1.601000 -0.355700 12.715000 0.669300 1.117800 4.497400 2.183800 -3.982100 8.693700 -1.986900 3.941800 18.830100 11.707600 -1.475700 -37.861800 15.984200 -76.033300 0.000000 -13.297000 0.000000 -71.819600 -9.414800 -9.780200 14.368400 -17.668700 5.465400 -32.123500 -10.780000 72.288400 -0.000100 22.628300 0.000000 -77.222300 0.524700 10.284400 
-11.639550 83.361022 23.554690 -1.667300 -6.183500 -1.697500 -0.672800 0.010600 3.033000 13.482600 0.000000 0.000000 -12.410300 -9.157000 11.217600 -25.322000 0.000000 0.000000 0.145000 -0.604500 4.172700 12.645300 0.000000 0.000000 -22.352000 1.645900 -25.347800 -14.989300 0.000000 0.000000 -6.323400 1.576900 -0.378200 12.902300 0.636100 1.016800 3.960200 2.219600 -4.391700 7.844300 -1.922500 3.790100 19.109400 12.863900 -1.631600 -41.717500 28.150100 -69.775400 0.000000 -7.228600 0.000000 -68.928800 -11.296100 -6.627500 14.770100 -19.377000 5.569300 -33.333500 -19.350200 68.711900 -0.000100 19.805100 0.000000 -80.107200 0.348800 5.479100 
-11.617960 83.383374 23.780750 -1.320000 -5.905600 -1.491700 -0.450300 0.069300 2.863300 12.516600 0.000000 0.000000 -11.572100 -9.463300 12.402700 -27.263000 0.000000 0.000000 -0.094800 -0.693100 4.002000 12.833100 0.000000 0.000000 -22.596800 1.521200 -25.614900 -15.491100 0.000000 0.000000 -6.159600 1.548800 -0.460800 13.048900 0.616800 0.970500 3.708900 2.190400 -4.722000 6.801500 -1.827900 3.622500 19.257000 14.286600 -1.472100 -49.433800 39.469200 -59.603700 0.000000 -4.511100 0.000000 -68.801100 -13.850800 -3.776100 14.784000 -21.146600 5.194000 -37.026100 -28.301200 62.818300 -0.000100 18.355800 0.000000 -82.504000 4.124700 1.263100 
-11.621262 83.413600 23.950930 -0.911400 -5.424900 -1.296300 -0.490100 -0.510900 2.683000 11.886100 0.000000 0.000000 -10.742300 -9.268900 13.796400 -28.997000 0.000000 0.000000 -0.406900 -0.932600 3.880100 12.987300 0.000000 0.000000 -22.684200 1.477100 -26.227200 -15.998600 0.000000 0.000000 -5.857900 1.506400 -0.553000 13.105400 0.562600 0.851400 3.522200 1.987600 -4.909500 5.585300 -1.876200 3.752400 19.323400 16.227300 -0.920400 -60.712200 46.559400 -46.754700 0.000000 -5.217500 0.000000 -68.647200 -16.518000 -0.850900 14.564600 -23.157300 4.380000 -43.190100 -35.628000 54.826000 -0.000100 19.539400 0.000000 -83.055400 9.279100 -1.691700 
